<svg width="932px" height="540px"
 viewBox="0.00 0.00 931.54 540.00" xmlns="http://www.w3.org/2000/svg" xmlns:xlink="http://www.w3.org/1999/xlink">
<g id="graph0" class="graph" transform="scale(1.0 1.0) rotate(0) translate(4 536)">
<title>de.model</title>
<polygon fill="white" stroke="transparent" points="-4,4 -4,-536 927.54,-536 927.54,4 -4,4"/>
<!-- AllAnime -->
<g id="node1" class="node">
<title>AllAnime</title>
<polygon fill="none" stroke="black" points="36.49,-77 36.49,-99 97.49,-99 97.49,-77 36.49,-77"/>
<text text-anchor="start" x="38.99" y="-83.4" font-family="Times,serif" font-size="14.00">AllAnime</text>
<polygon fill="none" stroke="black" points="36.49,-71 36.49,-77 97.49,-77 97.49,-71 36.49,-71"/>
</g>
<!-- Anime -->
<g id="node6" class="node">
<title>Anime</title>
<polygon fill="none" stroke="black" points="8.49,-384 8.49,-406 124.49,-406 124.49,-384 8.49,-384"/>
<text text-anchor="start" x="47.44" y="-390.4" font-family="Times,serif" font-size="14.00">Anime</text>
<polygon fill="none" stroke="black" points="8.49,-210 8.49,-384 124.49,-384 124.49,-210 8.49,-210"/>
<text text-anchor="start" x="11.49" y="-368.4" font-family="Times,serif" font-size="14.00">alias :List&lt;String&gt;</text>
<text text-anchor="start" x="11.49" y="-351.6" font-family="Times,serif" font-size="14.00">nameJap :String</text>
<text text-anchor="start" x="11.49" y="-334.8" font-family="Times,serif" font-size="14.00">nameEng :String</text>
<text text-anchor="start" x="11.49" y="-318" font-family="Times,serif" font-size="14.00">nameGer :String</text>
<text text-anchor="start" x="11.49" y="-301.2" font-family="Times,serif" font-size="14.00">year :List&lt;Integer&gt;</text>
<text text-anchor="start" x="11.49" y="-284.4" font-family="Times,serif" font-size="14.00">fsk :int</text>
<text text-anchor="start" x="11.49" y="-267.6" font-family="Times,serif" font-size="14.00">genre :List&lt;String&gt;</text>
<text text-anchor="start" x="11.49" y="-250.8" font-family="Times,serif" font-size="14.00">numEpisodes :int</text>
<text text-anchor="start" x="11.49" y="-234" font-family="Times,serif" font-size="14.00">lenEpisodes :float</text>
<text text-anchor="start" x="11.49" y="-217.2" font-family="Times,serif" font-size="14.00">lenAnime :float</text>
</g>
<!-- AllAnime&#45;&gt;Anime -->
<g id="edge1" class="edge">
<title>AllAnime&#45;&gt;Anime</title>
<path fill="none" stroke="black" d="M66.49,-103.34C66.49,-125.78 66.49,-166.66 66.49,-205.94"/>
<text text-anchor="middle" x="33.24" y="-193.34" font-family="Times,serif" font-size="14.00">animeList *</text>
<text text-anchor="middle" x="61.24" y="-107.54" font-family="Times,serif" font-size="14.00"> *</text>
</g>
<!-- AllBook -->
<g id="node2" class="node">
<title>AllBook</title>
<polygon fill="none" stroke="black" points="209.49,-77 209.49,-99 263.49,-99 263.49,-77 209.49,-77"/>
<text text-anchor="start" x="212.38" y="-83.4" font-family="Times,serif" font-size="14.00">AllBook</text>
<polygon fill="none" stroke="black" points="209.49,-71 209.49,-77 263.49,-77 263.49,-71 209.49,-71"/>
</g>
<!-- Book -->
<g id="node7" class="node">
<title>Book</title>
<polygon fill="none" stroke="black" points="176.49,-350 176.49,-372 296.49,-372 296.49,-350 176.49,-350"/>
<text text-anchor="start" x="221.32" y="-356.4" font-family="Times,serif" font-size="14.00">Book</text>
<polygon fill="none" stroke="black" points="176.49,-244 176.49,-350 296.49,-350 296.49,-244 176.49,-244"/>
<text text-anchor="start" x="179.49" y="-334.4" font-family="Times,serif" font-size="14.00">alias :List&lt;String&gt;</text>
<text text-anchor="start" x="179.49" y="-317.6" font-family="Times,serif" font-size="14.00">nameOV :String</text>
<text text-anchor="start" x="179.49" y="-300.8" font-family="Times,serif" font-size="14.00">nameGer :String</text>
<text text-anchor="start" x="179.49" y="-284" font-family="Times,serif" font-size="14.00">universe :String</text>
<text text-anchor="start" x="179.49" y="-267.2" font-family="Times,serif" font-size="14.00">author :List&lt;String&gt;</text>
<text text-anchor="start" x="179.49" y="-250.4" font-family="Times,serif" font-size="14.00">year :int</text>
</g>
<!-- AllBook&#45;&gt;Book -->
<g id="edge2" class="edge">
<title>AllBook&#45;&gt;Book</title>
<path fill="none" stroke="black" d="M236.49,-103.34C236.49,-132.44 236.49,-192.58 236.49,-240"/>
<text text-anchor="middle" x="206.35" y="-227.4" font-family="Times,serif" font-size="14.00">bookList *</text>
<text text-anchor="middle" x="231.24" y="-107.54" font-family="Times,serif" font-size="14.00"> *</text>
</g>
<!-- AllGame -->
<g id="node3" class="node">
<title>AllGame</title>
<polygon fill="none" stroke="black" points="378.49,-77 378.49,-99 435.49,-99 435.49,-77 378.49,-77"/>
<text text-anchor="start" x="381.33" y="-83.4" font-family="Times,serif" font-size="14.00">AllGame</text>
<polygon fill="none" stroke="black" points="378.49,-71 378.49,-77 435.49,-77 435.49,-71 378.49,-71"/>
</g>
<!-- Game -->
<g id="node8" class="node">
<title>Game</title>
<polygon fill="none" stroke="black" points="348.49,-350 348.49,-372 464.49,-372 464.49,-350 348.49,-350"/>
<text text-anchor="start" x="389.78" y="-356.4" font-family="Times,serif" font-size="14.00">Game</text>
<polygon fill="none" stroke="black" points="348.49,-244 348.49,-350 464.49,-350 464.49,-244 348.49,-244"/>
<text text-anchor="start" x="351.49" y="-334.4" font-family="Times,serif" font-size="14.00">alias :List&lt;String&gt;</text>
<text text-anchor="start" x="351.49" y="-317.6" font-family="Times,serif" font-size="14.00">nameOV :String</text>
<text text-anchor="start" x="351.49" y="-300.8" font-family="Times,serif" font-size="14.00">nameGer :String</text>
<text text-anchor="start" x="351.49" y="-284" font-family="Times,serif" font-size="14.00">universe :String</text>
<text text-anchor="start" x="351.49" y="-267.2" font-family="Times,serif" font-size="14.00">usk :int</text>
<text text-anchor="start" x="351.49" y="-250.4" font-family="Times,serif" font-size="14.00">genre :List&lt;String&gt;</text>
</g>
<!-- AllGame&#45;&gt;Game -->
<g id="edge3" class="edge">
<title>AllGame&#45;&gt;Game</title>
<path fill="none" stroke="black" d="M406.49,-103.34C406.49,-132.44 406.49,-192.58 406.49,-240"/>
<text text-anchor="middle" x="375.19" y="-227.4" font-family="Times,serif" font-size="14.00">gameList *</text>
<text text-anchor="middle" x="401.24" y="-107.54" font-family="Times,serif" font-size="14.00"> *</text>
</g>
<!-- AllMovie -->
<g id="node4" class="node">
<title>AllMovie</title>
<polygon fill="none" stroke="black" points="541.49,-77 541.49,-99 601.49,-99 601.49,-77 541.49,-77"/>
<text text-anchor="start" x="544.27" y="-83.4" font-family="Times,serif" font-size="14.00">AllMovie</text>
<polygon fill="none" stroke="black" points="541.49,-71 541.49,-77 601.49,-77 601.49,-71 541.49,-71"/>
</g>
<!-- Movie -->
<g id="node9" class="node">
<title>Movie</title>
<polygon fill="none" stroke="black" points="516.49,-358 516.49,-380 626.49,-380 626.49,-358 516.49,-358"/>
<text text-anchor="start" x="553.21" y="-364.4" font-family="Times,serif" font-size="14.00">Movie</text>
<polygon fill="none" stroke="black" points="516.49,-235 516.49,-358 626.49,-358 626.49,-235 516.49,-235"/>
<text text-anchor="start" x="519.49" y="-342.4" font-family="Times,serif" font-size="14.00">alias :List&lt;String&gt;</text>
<text text-anchor="start" x="519.49" y="-325.6" font-family="Times,serif" font-size="14.00">nameOV :String</text>
<text text-anchor="start" x="519.49" y="-308.8" font-family="Times,serif" font-size="14.00">nameGer :String</text>
<text text-anchor="start" x="519.49" y="-292" font-family="Times,serif" font-size="14.00">universe :String</text>
<text text-anchor="start" x="519.49" y="-275.2" font-family="Times,serif" font-size="14.00">year :int</text>
<text text-anchor="start" x="519.49" y="-258.4" font-family="Times,serif" font-size="14.00">fsk :int</text>
<text text-anchor="start" x="519.49" y="-241.6" font-family="Times,serif" font-size="14.00">length :int</text>
</g>
<!-- AllMovie&#45;&gt;Movie -->
<g id="edge4" class="edge">
<title>AllMovie&#45;&gt;Movie</title>
<path fill="none" stroke="black" d="M571.49,-103.34C571.49,-130.71 571.49,-185.54 571.49,-231.42"/>
<text text-anchor="middle" x="537.85" y="-218.82" font-family="Times,serif" font-size="14.00">movieList *</text>
<text text-anchor="middle" x="566.24" y="-107.54" font-family="Times,serif" font-size="14.00"> *</text>
</g>
<!-- AllSeries -->
<g id="node5" class="node">
<title>AllSeries</title>
<polygon fill="none" stroke="black" points="635.49,-77 635.49,-99 693.49,-99 693.49,-77 635.49,-77"/>
<text text-anchor="start" x="638.44" y="-83.4" font-family="Times,serif" font-size="14.00">AllSeries</text>
<polygon fill="none" stroke="black" points="635.49,-71 635.49,-77 693.49,-77 693.49,-71 635.49,-71"/>
</g>
<!-- Series -->
<g id="node12" class="node">
<title>Series</title>
<polygon fill="none" stroke="black" points="708.49,-342 708.49,-364 824.49,-364 824.49,-342 708.49,-342"/>
<text text-anchor="start" x="749.38" y="-348.4" font-family="Times,serif" font-size="14.00">Series</text>
<polygon fill="none" stroke="black" points="708.49,-252 708.49,-342 824.49,-342 824.49,-252 708.49,-252"/>
<text text-anchor="start" x="711.49" y="-326.4" font-family="Times,serif" font-size="14.00">alias :List&lt;String&gt;</text>
<text text-anchor="start" x="711.49" y="-309.6" font-family="Times,serif" font-size="14.00">nameOV :String</text>
<text text-anchor="start" x="711.49" y="-292.8" font-family="Times,serif" font-size="14.00">nameGer :String</text>
<text text-anchor="start" x="711.49" y="-276" font-family="Times,serif" font-size="14.00">language :String</text>
<text text-anchor="start" x="711.49" y="-259.2" font-family="Times,serif" font-size="14.00">genre :List&lt;String&gt;</text>
</g>
<!-- AllSeries&#45;&gt;Series -->
<g id="edge6" class="edge">
<title>AllSeries&#45;&gt;Series</title>
<path fill="none" stroke="black" d="M672.49,-103.34C686.68,-134.07 716.83,-199.41 739.18,-247.83"/>
<text text-anchor="middle" x="707.11" y="-235.23" font-family="Times,serif" font-size="14.00">seriesList *</text>
<text text-anchor="middle" x="667.24" y="-107.54" font-family="Times,serif" font-size="14.00"> *</text>
</g>
<!-- Anime&#45;&gt;Anime -->
<g id="edge7" class="edge">
<title>Anime&#45;&gt;Anime</title>
<path fill="none" stroke="black" d="M132.69,-276.92C143.26,-281.47 150.49,-291.83 150.49,-308 150.49,-324.17 143.26,-334.53 132.69,-339.08"/>
<text text-anchor="middle" x="155.82" y="-343.28" font-family="Times,serif" font-size="14.00">sequel *</text>
<text text-anchor="middle" x="158.93" y="-264.32" font-family="Times,serif" font-size="14.00">prequel *</text>
</g>
<!-- Book&#45;&gt;Book -->
<g id="edge8" class="edge">
<title>Book&#45;&gt;Book</title>
<path fill="none" stroke="black" d="M304.62,-277.07C315.24,-281.69 322.49,-292 322.49,-308 322.49,-324 315.24,-334.31 304.62,-338.93"/>
<text text-anchor="middle" x="327.75" y="-326.33" font-family="Times,serif" font-size="14.00">sequel *</text>
<text text-anchor="middle" x="317.74" y="-281.27" font-family="Times,serif" font-size="14.00">prequel *</text>
</g>
<!-- Game&#45;&gt;Game -->
<g id="edge9" class="edge">
<title>Game&#45;&gt;Game</title>
<path fill="none" stroke="black" d="M472.69,-276.92C483.26,-281.47 490.49,-291.83 490.49,-308 490.49,-324.17 483.26,-334.53 472.69,-339.08"/>
<text text-anchor="middle" x="495.82" y="-343.28" font-family="Times,serif" font-size="14.00">sequel *</text>
<text text-anchor="middle" x="498.93" y="-264.32" font-family="Times,serif" font-size="14.00">prequel *</text>
</g>
<!-- Release -->
<g id="node10" class="node">
<title>Release</title>
<polygon fill="none" stroke="black" points="340.49,-506 340.49,-528 473.49,-528 473.49,-506 340.49,-506"/>
<text text-anchor="start" x="385.22" y="-512.4" font-family="Times,serif" font-size="14.00">Release</text>
<polygon fill="none" stroke="black" points="340.49,-450 340.49,-506 473.49,-506 473.49,-450 340.49,-450"/>
<text text-anchor="start" x="343.49" y="-490.4" font-family="Times,serif" font-size="14.00">year :int</text>
<text text-anchor="start" x="343.49" y="-473.6" font-family="Times,serif" font-size="14.00">platform :List&lt;String&gt;</text>
<text text-anchor="start" x="343.49" y="-456.8" font-family="Times,serif" font-size="14.00">note :List&lt;String&gt;</text>
</g>
<!-- Game&#45;&gt;Release -->
<g id="edge5" class="edge">
<title>Game&#45;&gt;Release</title>
<path fill="none" stroke="black" d="M406.49,-376.16C406.49,-399.57 406.49,-425.16 406.49,-445.95"/>
<text text-anchor="middle" x="374.02" y="-433.35" font-family="Times,serif" font-size="14.00">published *</text>
<text text-anchor="middle" x="401.24" y="-380.36" font-family="Times,serif" font-size="14.00"> *</text>
</g>
<!-- Movie&#45;&gt;Movie -->
<g id="edge10" class="edge">
<title>Movie&#45;&gt;Movie</title>
<path fill="none" stroke="black" d="M634.66,-276.63C645.21,-281.02 652.49,-291.48 652.49,-308 652.49,-324.52 645.21,-334.98 634.66,-339.37"/>
<text text-anchor="middle" x="657.79" y="-326.77" font-family="Times,serif" font-size="14.00">sequel *</text>
<text text-anchor="middle" x="660.9" y="-264.03" font-family="Times,serif" font-size="14.00">prequel *</text>
</g>
<!-- Season -->
<g id="node11" class="node">
<title>Season</title>
<polygon fill="none" stroke="black" points="728.49,-144 728.49,-166 863.49,-166 863.49,-144 728.49,-144"/>
<text text-anchor="start" x="776.16" y="-150.4" font-family="Times,serif" font-size="14.00">Season</text>
<polygon fill="none" stroke="black" points="728.49,-4 728.49,-144 863.49,-144 863.49,-4 728.49,-4"/>
<text text-anchor="start" x="731.49" y="-128.4" font-family="Times,serif" font-size="14.00">name :String</text>
<text text-anchor="start" x="731.49" y="-111.6" font-family="Times,serif" font-size="14.00">yearOV :List&lt;Integer&gt;</text>
<text text-anchor="start" x="731.49" y="-94.8" font-family="Times,serif" font-size="14.00">yearGer :List&lt;Integer&gt;</text>
<text text-anchor="start" x="731.49" y="-78" font-family="Times,serif" font-size="14.00">fsk :int</text>
<text text-anchor="start" x="731.49" y="-61.2" font-family="Times,serif" font-size="14.00">platform :List&lt;String&gt;</text>
<text text-anchor="start" x="731.49" y="-44.4" font-family="Times,serif" font-size="14.00">numEpisodes :int</text>
<text text-anchor="start" x="731.49" y="-27.6" font-family="Times,serif" font-size="14.00">lenEpisodes :float</text>
<text text-anchor="start" x="731.49" y="-10.8" font-family="Times,serif" font-size="14.00">lenSeason :float</text>
</g>
<!-- Season&#45;&gt;Season -->
<g id="edge11" class="edge">
<title>Season&#45;&gt;Season</title>
<path fill="none" stroke="black" d="M871.06,-47.65C881.79,-53.69 888.99,-66.14 888.99,-85 888.99,-103.86 881.79,-116.31 871.06,-122.35"/>
<text text-anchor="middle" x="894.19" y="-109.75" font-family="Times,serif" font-size="14.00">sequel *</text>
<text text-anchor="middle" x="897.3" y="-35.05" font-family="Times,serif" font-size="14.00">prequel *</text>
</g>
<!-- Season&#45;&gt;Series -->
<g id="edge12" class="edge">
<title>Season&#45;&gt;Series</title>
<path fill="none" stroke="black" d="M784.44,-170.18C781.05,-196.04 777.39,-223.94 774.26,-247.76"/>
<text text-anchor="middle" x="758.33" y="-235.16" font-family="Times,serif" font-size="14.00">series</text>
<text text-anchor="middle" x="757.81" y="-174.38" font-family="Times,serif" font-size="14.00">seasons *</text>
</g>
</g>
</svg>
