<svg width="869px" height="557px"
 viewBox="0.00 0.00 869.05 557.00" xmlns="http://www.w3.org/2000/svg" xmlns:xlink="http://www.w3.org/1999/xlink">
<g id="graph0" class="graph" transform="scale(1.0 1.0) rotate(0) translate(4 553)">
<title>de.model</title>
<polygon fill="white" stroke="transparent" points="-4,4 -4,-553 865.05,-553 865.05,4 -4,4"/>
<!-- Anime -->
<g id="node1" class="node">
<title>Anime</title>
<polygon fill="none" stroke="black" points="8,-401 8,-423 124,-423 124,-401 8,-401"/>
<text text-anchor="start" x="46.95" y="-407.4" font-family="Times,serif" font-size="14.00">Anime</text>
<polygon fill="none" stroke="black" points="8,-227 8,-401 124,-401 124,-227 8,-227"/>
<text text-anchor="start" x="11" y="-385.4" font-family="Times,serif" font-size="14.00">alias :List&lt;String&gt;</text>
<text text-anchor="start" x="11" y="-368.6" font-family="Times,serif" font-size="14.00">nameJap :String</text>
<text text-anchor="start" x="11" y="-351.8" font-family="Times,serif" font-size="14.00">nameEng :String</text>
<text text-anchor="start" x="11" y="-335" font-family="Times,serif" font-size="14.00">nameGer :String</text>
<text text-anchor="start" x="11" y="-318.2" font-family="Times,serif" font-size="14.00">year :List&lt;Integer&gt;</text>
<text text-anchor="start" x="11" y="-301.4" font-family="Times,serif" font-size="14.00">fsk :int</text>
<text text-anchor="start" x="11" y="-284.6" font-family="Times,serif" font-size="14.00">genre :List&lt;String&gt;</text>
<text text-anchor="start" x="11" y="-267.8" font-family="Times,serif" font-size="14.00">numEpisodes :int</text>
<text text-anchor="start" x="11" y="-251" font-family="Times,serif" font-size="14.00">lenEpisodes :float</text>
<text text-anchor="start" x="11" y="-234.2" font-family="Times,serif" font-size="14.00">lenAnime :float</text>
</g>
<!-- Anime&#45;&gt;Anime -->
<g id="edge7" class="edge">
<title>Anime&#45;&gt;Anime</title>
<path fill="none" stroke="black" d="M132.2,-293.92C142.77,-298.47 150,-308.83 150,-325 150,-341.17 142.77,-351.53 132.2,-356.08"/>
<text text-anchor="middle" x="155.33" y="-360.28" font-family="Times,serif" font-size="14.00">sequel *</text>
<text text-anchor="middle" x="158.44" y="-281.32" font-family="Times,serif" font-size="14.00">prequel *</text>
</g>
<!-- Book -->
<g id="node2" class="node">
<title>Book</title>
<polygon fill="none" stroke="black" points="176,-367 176,-389 296,-389 296,-367 176,-367"/>
<text text-anchor="start" x="220.83" y="-373.4" font-family="Times,serif" font-size="14.00">Book</text>
<polygon fill="none" stroke="black" points="176,-261 176,-367 296,-367 296,-261 176,-261"/>
<text text-anchor="start" x="179" y="-351.4" font-family="Times,serif" font-size="14.00">alias :List&lt;String&gt;</text>
<text text-anchor="start" x="179" y="-334.6" font-family="Times,serif" font-size="14.00">nameOV :String</text>
<text text-anchor="start" x="179" y="-317.8" font-family="Times,serif" font-size="14.00">nameGer :String</text>
<text text-anchor="start" x="179" y="-301" font-family="Times,serif" font-size="14.00">universe :String</text>
<text text-anchor="start" x="179" y="-284.2" font-family="Times,serif" font-size="14.00">author :List&lt;String&gt;</text>
<text text-anchor="start" x="179" y="-267.4" font-family="Times,serif" font-size="14.00">date :Date</text>
</g>
<!-- Book&#45;&gt;Book -->
<g id="edge8" class="edge">
<title>Book&#45;&gt;Book</title>
<path fill="none" stroke="black" d="M304.13,-294.07C314.76,-298.69 322,-309 322,-325 322,-341 314.76,-351.31 304.13,-355.93"/>
<text text-anchor="middle" x="327.26" y="-343.33" font-family="Times,serif" font-size="14.00">sequel *</text>
<text text-anchor="middle" x="330.37" y="-298.27" font-family="Times,serif" font-size="14.00">prequel *</text>
</g>
<!-- Data -->
<g id="node3" class="node">
<title>Data</title>
<polygon fill="none" stroke="black" points="390,-85.5 390,-107.5 422,-107.5 422,-85.5 390,-85.5"/>
<text text-anchor="start" x="392.79" y="-91.9" font-family="Times,serif" font-size="14.00">Data</text>
<polygon fill="none" stroke="black" points="390,-79.5 390,-85.5 422,-85.5 422,-79.5 390,-79.5"/>
</g>
<!-- Data&#45;&gt;Anime -->
<g id="edge1" class="edge">
<title>Data&#45;&gt;Anime</title>
<path fill="none" stroke="black" d="M378.63,-105.04C331.08,-124.13 231.36,-167.63 159,-223 149.82,-230.03 140.78,-238.01 132.16,-246.35"/>
<text text-anchor="middle" x="165.4" y="-233.75" font-family="Times,serif" font-size="14.00">animeList *</text>
<text text-anchor="middle" x="373.38" y="-92.44" font-family="Times,serif" font-size="14.00"> *</text>
</g>
<!-- Data&#45;&gt;Book -->
<g id="edge2" class="edge">
<title>Data&#45;&gt;Book</title>
<path fill="none" stroke="black" d="M393.22,-111.75C370.67,-142.19 322.71,-206.94 285.65,-256.97"/>
<text text-anchor="middle" x="252.79" y="-244.37" font-family="Times,serif" font-size="14.00">booksList *</text>
<text text-anchor="middle" x="387.97" y="-115.95" font-family="Times,serif" font-size="14.00"> *</text>
</g>
<!-- Game -->
<g id="node4" class="node">
<title>Game</title>
<polygon fill="none" stroke="black" points="348,-367 348,-389 464,-389 464,-367 348,-367"/>
<text text-anchor="start" x="389.29" y="-373.4" font-family="Times,serif" font-size="14.00">Game</text>
<polygon fill="none" stroke="black" points="348,-261 348,-367 464,-367 464,-261 348,-261"/>
<text text-anchor="start" x="351" y="-351.4" font-family="Times,serif" font-size="14.00">alias :List&lt;String&gt;</text>
<text text-anchor="start" x="351" y="-334.6" font-family="Times,serif" font-size="14.00">nameOV :String</text>
<text text-anchor="start" x="351" y="-317.8" font-family="Times,serif" font-size="14.00">nameGer :String</text>
<text text-anchor="start" x="351" y="-301" font-family="Times,serif" font-size="14.00">universe :String</text>
<text text-anchor="start" x="351" y="-284.2" font-family="Times,serif" font-size="14.00">usk :int</text>
<text text-anchor="start" x="351" y="-267.4" font-family="Times,serif" font-size="14.00">genre :List&lt;String&gt;</text>
</g>
<!-- Data&#45;&gt;Game -->
<g id="edge3" class="edge">
<title>Data&#45;&gt;Game</title>
<path fill="none" stroke="black" d="M406,-111.75C406,-142.19 406,-206.94 406,-256.97"/>
<text text-anchor="middle" x="371.98" y="-244.37" font-family="Times,serif" font-size="14.00">gamesList *</text>
<text text-anchor="middle" x="400.75" y="-115.95" font-family="Times,serif" font-size="14.00"> *</text>
</g>
<!-- Movie -->
<g id="node5" class="node">
<title>Movie</title>
<polygon fill="none" stroke="black" points="516,-375 516,-397 626,-397 626,-375 516,-375"/>
<text text-anchor="start" x="552.73" y="-381.4" font-family="Times,serif" font-size="14.00">Movie</text>
<polygon fill="none" stroke="black" points="516,-252 516,-375 626,-375 626,-252 516,-252"/>
<text text-anchor="start" x="519" y="-359.4" font-family="Times,serif" font-size="14.00">alias :List&lt;String&gt;</text>
<text text-anchor="start" x="519" y="-342.6" font-family="Times,serif" font-size="14.00">nameOV :String</text>
<text text-anchor="start" x="519" y="-325.8" font-family="Times,serif" font-size="14.00">nameGer :String</text>
<text text-anchor="start" x="519" y="-309" font-family="Times,serif" font-size="14.00">universe :String</text>
<text text-anchor="start" x="519" y="-292.2" font-family="Times,serif" font-size="14.00">year :int</text>
<text text-anchor="start" x="519" y="-275.4" font-family="Times,serif" font-size="14.00">fsk :int</text>
<text text-anchor="start" x="519" y="-258.6" font-family="Times,serif" font-size="14.00">length :int</text>
</g>
<!-- Data&#45;&gt;Movie -->
<g id="edge4" class="edge">
<title>Data&#45;&gt;Movie</title>
<path fill="none" stroke="black" d="M418.37,-111.52C436.23,-136.09 470.24,-182.96 499,-223 504.9,-231.22 511.07,-239.83 517.2,-248.4"/>
<text text-anchor="middle" x="480.06" y="-235.8" font-family="Times,serif" font-size="14.00">MoviesList *</text>
<text text-anchor="middle" x="413.12" y="-115.72" font-family="Times,serif" font-size="14.00"> *</text>
</g>
<!-- Series -->
<g id="node8" class="node">
<title>Series</title>
<polygon fill="none" stroke="black" points="678,-350 678,-372 788,-372 788,-350 678,-350"/>
<text text-anchor="start" x="715.9" y="-356.4" font-family="Times,serif" font-size="14.00">Series</text>
<polygon fill="none" stroke="black" points="678,-277 678,-350 788,-350 788,-277 678,-277"/>
<text text-anchor="start" x="681" y="-334.4" font-family="Times,serif" font-size="14.00">alias :List&lt;String&gt;</text>
<text text-anchor="start" x="681" y="-317.6" font-family="Times,serif" font-size="14.00">nameOV :String</text>
<text text-anchor="start" x="681" y="-300.8" font-family="Times,serif" font-size="14.00">nameGer :String</text>
<text text-anchor="start" x="681" y="-284" font-family="Times,serif" font-size="14.00">language :String</text>
</g>
<!-- Data&#45;&gt;Series -->
<g id="edge6" class="edge">
<title>Data&#45;&gt;Series</title>
<path fill="none" stroke="black" d="M433.07,-103.22C482.56,-120.16 589.14,-161.34 661,-223 677.51,-237.16 692.2,-255.87 703.93,-273.33"/>
<text text-anchor="middle" x="671.86" y="-260.73" font-family="Times,serif" font-size="14.00">seriesList *</text>
<text text-anchor="middle" x="438.32" y="-90.62" font-family="Times,serif" font-size="14.00"> *</text>
</g>
<!-- Game&#45;&gt;Game -->
<g id="edge9" class="edge">
<title>Game&#45;&gt;Game</title>
<path fill="none" stroke="black" d="M472.2,-293.92C482.77,-298.47 490,-308.83 490,-325 490,-341.17 482.77,-351.53 472.2,-356.08"/>
<text text-anchor="middle" x="495.33" y="-360.28" font-family="Times,serif" font-size="14.00">sequel *</text>
<text text-anchor="middle" x="498.44" y="-281.32" font-family="Times,serif" font-size="14.00">prequel *</text>
</g>
<!-- Release -->
<g id="node6" class="node">
<title>Release</title>
<polygon fill="none" stroke="black" points="340,-523 340,-545 473,-545 473,-523 340,-523"/>
<text text-anchor="start" x="384.73" y="-529.4" font-family="Times,serif" font-size="14.00">Release</text>
<polygon fill="none" stroke="black" points="340,-467 340,-523 473,-523 473,-467 340,-467"/>
<text text-anchor="start" x="343" y="-507.4" font-family="Times,serif" font-size="14.00">year :int</text>
<text text-anchor="start" x="343" y="-490.6" font-family="Times,serif" font-size="14.00">platform :List&lt;String&gt;</text>
<text text-anchor="start" x="343" y="-473.8" font-family="Times,serif" font-size="14.00">note :List&lt;String&gt;</text>
</g>
<!-- Game&#45;&gt;Release -->
<g id="edge5" class="edge">
<title>Game&#45;&gt;Release</title>
<path fill="none" stroke="black" d="M406,-393.16C406,-416.57 406,-442.16 406,-462.95"/>
<text text-anchor="middle" x="373.53" y="-450.35" font-family="Times,serif" font-size="14.00">published *</text>
<text text-anchor="middle" x="400.75" y="-397.36" font-family="Times,serif" font-size="14.00"> *</text>
</g>
<!-- Movie&#45;&gt;Movie -->
<g id="edge10" class="edge">
<title>Movie&#45;&gt;Movie</title>
<path fill="none" stroke="black" d="M634.17,-293.63C644.72,-298.02 652,-308.48 652,-325 652,-341.52 644.72,-351.98 634.17,-356.37"/>
<text text-anchor="middle" x="657.3" y="-343.77" font-family="Times,serif" font-size="14.00">sequel *</text>
<text text-anchor="middle" x="647.29" y="-297.83" font-family="Times,serif" font-size="14.00">prequel *</text>
</g>
<!-- Season -->
<g id="node7" class="node">
<title>Season</title>
<polygon fill="none" stroke="black" points="666,-160.5 666,-182.5 801,-182.5 801,-160.5 666,-160.5"/>
<text text-anchor="start" x="713.67" y="-166.9" font-family="Times,serif" font-size="14.00">Season</text>
<polygon fill="none" stroke="black" points="666,-3.5 666,-160.5 801,-160.5 801,-3.5 666,-3.5"/>
<text text-anchor="start" x="669" y="-144.9" font-family="Times,serif" font-size="14.00">name :String</text>
<text text-anchor="start" x="669" y="-128.1" font-family="Times,serif" font-size="14.00">yearOV :List&lt;Integer&gt;</text>
<text text-anchor="start" x="669" y="-111.3" font-family="Times,serif" font-size="14.00">yearGer :List&lt;Integer&gt;</text>
<text text-anchor="start" x="669" y="-94.5" font-family="Times,serif" font-size="14.00">fsk :int</text>
<text text-anchor="start" x="669" y="-77.7" font-family="Times,serif" font-size="14.00">genre :List&lt;String&gt;</text>
<text text-anchor="start" x="669" y="-60.9" font-family="Times,serif" font-size="14.00">platform :List&lt;String&gt;</text>
<text text-anchor="start" x="669" y="-44.1" font-family="Times,serif" font-size="14.00">numEpisodes :int</text>
<text text-anchor="start" x="669" y="-27.3" font-family="Times,serif" font-size="14.00">lenEpisodes :float</text>
<text text-anchor="start" x="669" y="-10.5" font-family="Times,serif" font-size="14.00">lenSeason :float</text>
</g>
<!-- Season&#45;&gt;Season -->
<g id="edge11" class="edge">
<title>Season&#45;&gt;Season</title>
<path fill="none" stroke="black" d="M808.57,-54.8C819.3,-61.06 826.5,-73.96 826.5,-93.5 826.5,-113.04 819.3,-125.94 808.57,-132.2"/>
<text text-anchor="middle" x="831.7" y="-119.6" font-family="Times,serif" font-size="14.00">sequel *</text>
<text text-anchor="middle" x="834.81" y="-42.2" font-family="Times,serif" font-size="14.00">prequel *</text>
</g>
<!-- Season&#45;&gt;Series -->
<g id="edge12" class="edge">
<title>Season&#45;&gt;Series</title>
<path fill="none" stroke="black" d="M733,-187.18C733,-216.54 733,-247.91 733,-273.19"/>
<text text-anchor="middle" x="748.93" y="-260.59" font-family="Times,serif" font-size="14.00">series</text>
<text text-anchor="middle" x="706.37" y="-191.38" font-family="Times,serif" font-size="14.00">seasons *</text>
</g>
</g>
</svg>
