<svg width="1106px" height="128px"
 viewBox="0.00 0.00 1106.00 128.00" xmlns="http://www.w3.org/2000/svg" xmlns:xlink="http://www.w3.org/1999/xlink">
<g id="graph0" class="graph" transform="scale(1.0 1.0) rotate(0) translate(4 124)">
<title>de.filter</title>
<polygon fill="white" stroke="transparent" points="-4,4 -4,-124 1102,-124 1102,4 -4,4"/>
<!-- FilterAnime -->
<g id="node1" class="node">
<title>FilterAnime</title>
<polygon fill="none" stroke="black" points="8,-77 8,-99 154,-99 154,-77 8,-77"/>
<text text-anchor="start" x="46.78" y="-83.4" font-family="Times,serif" font-size="14.00">FilterAnime</text>
<polygon fill="none" stroke="black" points="8,-21 8,-77 154,-77 154,-21 8,-21"/>
<text text-anchor="start" x="11" y="-61.4" font-family="Times,serif" font-size="14.00">filterYear :List&lt;Integer&gt;</text>
<text text-anchor="start" x="11" y="-44.6" font-family="Times,serif" font-size="14.00">filterFsk :List&lt;Integer&gt;</text>
<text text-anchor="start" x="11" y="-27.8" font-family="Times,serif" font-size="14.00">filterGenre :List&lt;String&gt;</text>
</g>
<!-- FilterBook -->
<g id="node2" class="node">
<title>FilterBook</title>
<polygon fill="none" stroke="black" points="188,-77 188,-99 350,-99 350,-77 188,-77"/>
<text text-anchor="start" x="238.67" y="-83.4" font-family="Times,serif" font-size="14.00">FilterBook</text>
<polygon fill="none" stroke="black" points="188,-21 188,-77 350,-77 350,-21 188,-21"/>
<text text-anchor="start" x="191" y="-61.4" font-family="Times,serif" font-size="14.00">filterUniverse :List&lt;String&gt;</text>
<text text-anchor="start" x="191" y="-44.6" font-family="Times,serif" font-size="14.00">filterAuthor :List&lt;String&gt;</text>
<text text-anchor="start" x="191" y="-27.8" font-family="Times,serif" font-size="14.00">filterYear :List&lt;Integer&gt;</text>
</g>
<!-- FilterGame -->
<g id="node3" class="node">
<title>FilterGame</title>
<polygon fill="none" stroke="black" points="384,-94 384,-116 546,-116 546,-94 384,-94"/>
<text text-anchor="start" x="433.12" y="-100.4" font-family="Times,serif" font-size="14.00">FilterGame</text>
<polygon fill="none" stroke="black" points="384,-4 384,-94 546,-94 546,-4 384,-4"/>
<text text-anchor="start" x="387" y="-78.4" font-family="Times,serif" font-size="14.00">filterUniverse :List&lt;String&gt;</text>
<text text-anchor="start" x="387" y="-61.6" font-family="Times,serif" font-size="14.00">filterUsk :List&lt;Integer&gt;</text>
<text text-anchor="start" x="387" y="-44.8" font-family="Times,serif" font-size="14.00">filterGenre :List&lt;String&gt;</text>
<text text-anchor="start" x="387" y="-28" font-family="Times,serif" font-size="14.00">filterYear :List&lt;Integer&gt;</text>
<text text-anchor="start" x="387" y="-11.2" font-family="Times,serif" font-size="14.00">filterPlatform :List&lt;String&gt;</text>
</g>
<!-- FilterMovie -->
<g id="node4" class="node">
<title>FilterMovie</title>
<polygon fill="none" stroke="black" points="580,-77 580,-99 742,-99 742,-77 580,-77"/>
<text text-anchor="start" x="627.56" y="-83.4" font-family="Times,serif" font-size="14.00">FilterMovie</text>
<polygon fill="none" stroke="black" points="580,-21 580,-77 742,-77 742,-21 580,-21"/>
<text text-anchor="start" x="583" y="-61.4" font-family="Times,serif" font-size="14.00">filterUniverse :List&lt;String&gt;</text>
<text text-anchor="start" x="583" y="-44.6" font-family="Times,serif" font-size="14.00">filterYear :List&lt;Integer&gt;</text>
<text text-anchor="start" x="583" y="-27.8" font-family="Times,serif" font-size="14.00">filterFsk :List&lt;Integer&gt;</text>
</g>
<!-- FilterSeries -->
<g id="node5" class="node">
<title>FilterSeries</title>
<polygon fill="none" stroke="black" points="777,-94 777,-116 944,-116 944,-94 777,-94"/>
<text text-anchor="start" x="828.23" y="-100.4" font-family="Times,serif" font-size="14.00">FilterSeries</text>
<polygon fill="none" stroke="black" points="777,-4 777,-94 944,-94 944,-4 777,-4"/>
<text text-anchor="start" x="780" y="-78.4" font-family="Times,serif" font-size="14.00">filterLanguage :List&lt;String&gt;</text>
<text text-anchor="start" x="780" y="-61.6" font-family="Times,serif" font-size="14.00">filterGenre :List&lt;String&gt;</text>
<text text-anchor="start" x="780" y="-44.8" font-family="Times,serif" font-size="14.00">filterYear :List&lt;Integer&gt;</text>
<text text-anchor="start" x="780" y="-28" font-family="Times,serif" font-size="14.00">filterFsk :List&lt;Integer&gt;</text>
<text text-anchor="start" x="780" y="-11.2" font-family="Times,serif" font-size="14.00">filterPlatform :List&lt;String&gt;</text>
</g>
<!-- FilterType -->
<g id="node6" class="node">
<title>FilterType</title>
<polygon fill="none" stroke="black" points="978,-60 978,-82 1090,-82 1090,-60 978,-60"/>
<text text-anchor="start" x="1004.45" y="-66.4" font-family="Times,serif" font-size="14.00">FilterType</text>
<polygon fill="none" stroke="black" points="978,-38 978,-60 1090,-60 1090,-38 978,-38"/>
<text text-anchor="start" x="981" y="-44.4" font-family="Times,serif" font-size="14.00">filter :List&lt;String&gt;</text>
</g>
</g>
</svg>
